<svg xmlns="http://www.w3.org/2000/svg" xmlns:svg="http://www.w3.org/2000/svg" id="Layer_1" x="0" y="0" version="1.1" viewBox="0 0 28 28" style="enable-background:new 0 0 28 28" xml:space="preserve"><metadata id="metadata23"/><style id="style2" type="text/css">.st0{fill:#010101}</style><g id="g16" transform="matrix(0.98305084,0,0,0.98305084,0.23728824,0.23728824)"><path id="path4" d="M 26.3,1.3 H 1.7 C 0.8,1.3 0,2 0,3 v 22 c 0,0.9 0.8,1.7 1.7,1.7 H 26.3 C 27.2,26.7 28,25.9 28,25 V 3 C 28,2 27.2,1.3 26.3,1.3 Z m -5.1,2.8 c 0,-0.3 0.3,-0.6 0.6,-0.6 h 0.6 c 0.3,0 0.6,0.3 0.6,0.6 v 0.7 c 0,0.3 -0.3,0.6 -0.6,0.6 h -0.6 c -0.3,0 -0.6,-0.3 -0.6,-0.6 z m -2.8,0 c 0,-0.3 0.3,-0.6 0.6,-0.6 h 0.6 c 0.3,0 0.6,0.3 0.6,0.6 v 0.7 c 0,0.3 -0.3,0.6 -0.6,0.6 H 19 C 18.7,5.4 18.4,5.1 18.4,4.8 Z M 26,24.7 H 2 V 7.3 H 26 Z M 26,4.8 c 0,0.3 -0.3,0.6 -0.6,0.6 H 24.8 C 24.5,5.4 24.2,5.1 24.2,4.8 V 4.1 c 0,-0.3 0.3,-0.6 0.6,-0.6 h 0.6 c 0.3,0 0.6,0.3 0.6,0.6 z" class="st0" style="fill:#010101"/><path id="path6" d="m 4.2,20.9 c 0.2,0.2 0.4,0.4 0.7,0.4 v 0 c 0.4,0 0.7,-0.2 0.8,-0.6 l 3,-9.2 C 8.8,11.2 8.7,10.9 8.6,10.7 8.4,10.5 8.2,10.3 7.9,10.3 v 0 c -0.4,0 -0.7,0.2 -0.8,0.6 l -3,9.2 C 3.9,20.4 4,20.7 4.2,20.9 Z" class="st0" style="fill:#010101"/><g id="g14"><path id="path8" d="m 12.5,18.5 h -2.3 l -0.3,1 h -2 l 2.3,-7.1 h 2.2 l 2.3,7.1 h -2 z M 12,16.9 11.3,14.4 10.6,16.9 Z" class="st0" style="fill:#010101"/><path id="path10" d="m 19.3,12.7 c 0.4,0.2 0.7,0.5 0.9,0.9 0.2,0.4 0.3,0.8 0.3,1.3 0,0.5 -0.1,0.9 -0.3,1.3 -0.2,0.4 -0.5,0.7 -0.9,0.9 -0.4,0.2 -0.8,0.3 -1.3,0.3 h -0.9 v 2.1 h -1.8 v -7.1 h 1.8 0.9 c 0.5,0 0.9,0.1 1.3,0.3 z m -0.8,2.8 c 0.1,-0.1 0.2,-0.3 0.2,-0.5 0,-0.2 -0.1,-0.4 -0.2,-0.5 -0.1,-0.1 -0.3,-0.2 -0.5,-0.2 h -0.9 v 1.5 H 18 c 0.2,-0.1 0.4,-0.2 0.5,-0.3 z" class="st0" style="fill:#010101"/><path id="path12" d="m 23.1,12.4 v 7.1 h -1.8 v -7.1 z" class="st0" style="fill:#010101"/></g></g></svg>