<svg xmlns="http://www.w3.org/2000/svg" xmlns:svg="http://www.w3.org/2000/svg" id="Layer_1" width="16" height="16" data-name="Layer 1" version="1.1" viewBox="0 0 16 16"><metadata id="metadata25"/><defs id="defs12"><style id="style10">.cls-1{fill:#7e488f}.cls-2{fill:#fff}</style></defs><title id="title14">logo_icon</title><polygon id="polygon16" points="0 204.89 70.2 245.42 140.4 204.89 140.4 123.83 70.2 83.3 0 123.83" class="cls-1" transform="matrix(0.09798208,0,0,0.09798208,1.121658,-8.1043347)"/><path style="stroke-width:.0945" id="path20" d="M 10.87658,11.44313 A 1.783215,1.783215 0 0 1 10.344545,11.36375 1.56303,1.56303 0 0 1 9.88055,11.13128 1.072575,1.072575 0 0 1 9.548855,10.72304 1.32867,1.32867 0 0 1 9.42506,10.138085 q 0,-0.693631 0.426195,-1.048951 a 1.54791,1.54791 0 0 1 1.025325,-0.35532 1.628235,1.628235 0 0 1 1.029105,0.324135 V 8.217844 a 2.584575,2.584575 0 0 0 -1.15857,-0.263655 v 0 l -2.58741,0.00756 a 0.513135,0.513135 0 0 1 0.02079,-0.14553 1.185975,1.185975 0 0 1 0.04536,-0.13041 0.54243,0.54243 0 0 1 0.08127,-0.12663 q 0.0567,-0.068985 0.0945,-0.116235 A 1.0395,1.0395 0 0 1 8.532035,7.326709 1.677375,1.677375 0 0 1 8.67473,7.224649 l 0.167265,-0.10206 0.16632,-0.10206 0.189,-0.1134 0.178605,-0.10962 a 4.431105,4.431105 0 0 0 0.983745,-0.749385 1.30032,1.30032 0 0 0 0.36099,-0.925155 q 0,-0.652995 -0.4725,-1.004535 -0.4725,-0.35154 -1.2285,-0.35154 a 2.779245,2.779245 0 0 0 -1.6065,0.48951 v 0.77679 Q 8.15876,4.493599 8.945945,4.493599 a 1.29465,1.29465 0 0 1 0.705915,0.163485 0.532035,0.532035 0 0 1 0.252315,0.4725 0.8505,0.8505 0 0 1 -0.2835,0.617085 5.39973,5.39973 0 0 1 -0.773955,0.50085 Q 8.248535,6.611344 8.031185,6.775774 A 2.079,2.079 0 0 0 7.454735,7.447669 V 5.679574 H 6.62408 L 4.062185,8.831149 v 0.688905 h 2.61765 v 0.986581 h 0.78435 V 9.519109 H 7.47458 V 8.813194 H 7.464185 V 8.679949 h 1.54791 a 1.99206,1.99206 0 0 0 -0.29673,0.48384 2.37951,2.37951 0 0 0 -0.189,0.972406 2.1735,2.1735 0 0 0 0.189,0.92799 1.73124,1.73124 0 0 0 0.511245,0.6615 2.384235,2.384235 0 0 0 0.707805,0.378 2.5515,2.5515 0 0 0 0.81081,0.129465 2.70081,2.70081 0 0 0 1.19259,-0.2646 v -0.86373 q -0.37989,0.33831 -1.061235,0.33831 z M 6.679835,8.813194 H 4.96088 L 6.679835,6.704899 Z" class="cls-2"/></svg>