<svg xmlns="http://www.w3.org/2000/svg" xmlns:xlink="http://www.w3.org/1999/xlink" id="图层_1" x="0" y="0" version="1.1" viewBox="0 0 24 24" xml:space="preserve" style="enable-background:new 0 0 24 24"><style type="text/css">.st0{fill:#231f20}</style><path id="XMLID_1_" d="M12,17c-2.8,0-5-2.2-5-5s2.2-5,5-5s5,2.2,5,5S14.8,17,12,17z M12,8c-2.2,0-4,1.8-4,4	c0,2.2,1.8,4,4,4c2.2,0,4-1.8,4-4C16,9.8,14.2,8,12,8z M11.8,14.2c0.2,0,0.3-0.1,0.4-0.2l2.3-3.5c0.2-0.2,0.1-0.5-0.1-0.7	c-0.2-0.2-0.5-0.1-0.7,0.1l-1.9,2.9l-1.1-1.3c-0.2-0.2-0.5-0.2-0.7-0.1c-0.2,0.2-0.2,0.5-0.1,0.7l1.6,1.8	C11.5,14.1,11.6,14.2,11.8,14.2C11.8,14.2,11.8,14.2,11.8,14.2z" class="st0"/></svg>